<?xml version="1.0" encoding="UTF-8"?>
<svg version="1.1" viewBox="0 0 85 85" xmlns="http://www.w3.org/2000/svg">
<title>Avatar 07</title>
<desc>Created with Sketch.</desc>
<defs>
<linearGradient id="g" x1="18.545%" x2="66.175%" y1="9.2724%" y2="77.452%">
<stop stop-color="#C2855D" offset="0"/>
<stop stop-color="#F8DFCF" offset="1"/>
</linearGradient>
<radialGradient id="d" cy="14.699%" r="151.8%" gradientTransform="translate(.5 .14699) scale(1 .65878) rotate(90) translate(-.5 -.14699)">
<stop stop-color="#FFECDA" offset="0"/>
<stop stop-color="#FEDCC2" offset="1"/>
</radialGradient>
<linearGradient id="a" x1="108.29%" x2="107.28%" y1="89.179%" y2="7.0093%">
<stop stop-color="#3D2721" offset="0"/>
<stop stop-color="#5D2A11" offset=".26849"/>
<stop stop-color="#8A532D" offset=".69021"/>
<stop stop-color="#6E452B" offset="1"/>
</linearGradient>
<linearGradient id="f" x1="41.379%" x2="33.965%" y1="4.6342%" y2="26.865%">
<stop stop-color="#70472C" offset="0"/>
<stop stop-color="#382416" offset="1"/>
</linearGradient>
<linearGradient id="e" x1="41.379%" x2="41.379%" y1="4.6342%" y2="54.17%">
<stop stop-color="#73482C" offset="0"/>
<stop stop-color="#382416" offset="1"/>
</linearGradient>
<radialGradient id="c" r="82.183%" gradientTransform="translate(.5 .5) scale(.74764 1) rotate(90) translate(-.5 -.5)">
<stop stop-color="#7E4812" offset="0"/>
<stop stop-color="#482207" offset="1"/>
</radialGradient>
<radialGradient id="b" r="82.183%" gradientTransform="translate(.5 .5) scale(.71043 1) rotate(90) translate(-.5 -.5)">
<stop stop-color="#7E4812" offset="0"/>
<stop stop-color="#482207" offset="1"/>
</radialGradient>
</defs>
<g fill="none" fill-rule="evenodd">
<g transform="translate(4.8226 3.9488)">
<g transform="translate(.073579 .68352)">
<path d="m18.127 52.699s5.2207 19.743 3.132 21.717c-2.0887 1.9737-8.1031 2.8089-10.096 5.0363 0 3.5999 2.0234 10.874 2.9927 12.293 0.96934 1.4189 7.7591 8.5109 18.815 5.792 7.3707-1.8126 12.159-5.4189 14.366-10.819l5.7758-11.048-1.5283-3.7407-4.2475-1.0777c3.1857-0.69559 3.3337-6.6065 0.4438-17.733-3.0252-2.5136-7.5773-2.5173-13.656-0.01116h-9.5687c-4.2857-0.2727-6.4286-0.40904-6.4286-0.40904z" fill="url(#g)"/>
<path d="m33.479 7.6765c-6.3383-0.87053-10.835 1.0239-13.489 5.6833-2.6542 4.6594-4.2654 10.811-4.8336 18.454 0.29672 6.9254 0.44507 10.388 0.44507 10.388s-0.72798 6.4261 2.8864 10.683c3.6143 4.2565 7.016 7.7189 7.1568 8.046 0.14078 0.32716 2.2969 2.0287 5.5481 2.0287 2.1674 0 5.0164-0.85549 8.5469-2.5665 5.5634-4.0615 8.5922-7.1227 9.0866-9.1835s1.3318-6.1328 2.5125-12.216c0.49598-10.536 0.49598-16.705 0-18.506-0.74397-2.7014-4.1011-10.667-7.8501-11.739-2.4993-0.71456-5.8359-1.0718-10.01-1.0718z" fill="url(#d)"/>
<path d="m23.002 47.879c2.6987-1.1943 5.58-1.0023 8.644 0.57604 3.3496-0.40289 7.3791-0.79686 9.5947 0.83674-1.7418-0.1892-4.1562-1.7741-9.5947 0.16437-5.5359-2.4978-8.3828-1.4752-8.6348-1.5772" fill="#F76852"/>
<path d="m22.206 45.266c-1.1474 0.35065-1.7211 0.7927-1.7211 1.3262 0 0.53347 0.28685 1.1812 0.86055 1.9431-0.28825-0.66941-0.43238-1.2143-0.43238-1.6346 0-0.63052-0.0050931-0.62505 0.43238-1.0077 0.29165-0.2551 0.5785-0.46408 0.86055-0.62694z" fill="#E1C1A9"/>
<path d="m37.555 41.996c1.456 2.0444 2.4343 3.2853 2.9348 3.7228 0.75081 0.65621 2.5762 1.9344 2.5762 2.2617 0 0.32728-0.082026 1.5843-0.47172 2.019-0.38969 0.43474 0.72629-0.45114 0.72629-1.3844 0-0.93322-0.10275-1.3789-0.72629-1.8178-0.62354-0.43891-3.2032-2.8132-3.9124-3.8073-0.47281-0.66273-0.91155-1.2031-1.3162-1.6212l0.18935 0.62714z" fill="#E1C1A9"/>
<path d="m23.011 47.981c0.62401-0.25525 1.2424-0.34033 1.8552-0.25525v1.316h0.77837l3.3046 1.7809 4.1658 0.38645 3.7892-0.38645 1.7777-0.57858 0.36884-0.20554 0.31079-0.83507v-0.37737l1.8856 0.62539-1.3155 0.92146-5.3871 2.5114-4.3644 0.22393-4.5353-1.7832-1.8981-2.7589-0.73543-0.58521z" fill="#432610"/>
<polygon points="24.744 48.118 24.744 47.67 28.281 47.67 31.878 49.159 35.737 48.279 39.74 48.703 39.454 48.864 39.454 49.159 37.771 49.915 32.242 49.641 29.083 49.159 26.803 49.39 25.437 48.446" fill="#F7C6BF"/>
<path d="m26.692 41.522c-0.24701 0-2.1089 2.0671-2.8948 2.5806-0.52391 0.3424-0.89082 0.60728-1.1007 0.79464 0.36187 0.090372 0.72878-0.019475 1.1007-0.32954 0.37195-0.31007 1.2545-1.0988 2.6478-2.3661 0.32935-0.45307 0.41169-0.67961 0.24701-0.67961z" fill="#E1C1A9"/>
<path d="m24.691 48.052c-0.061879 0.6014 0.021634 0.99233 0.25054 1.1728 0.2289 0.18046 0.39898 0.18046 0.51022 0v0.46726l0.53181 0.20765v0.33156c0.28823 0.2774 0.67118 0.37156 1.1489 0.28249 0-0.11033 0.035784-0.057274 0.10735 0.15916 0.38135 0.26214 0.77734 0.34338 1.188 0.2437 0.06315-0.062796 0.10787-0.14403 0.13415-0.2437v0.41538l0.17305 0.21248 2.2001 0.27414 0.23245-0.13153 0.025432-0.35509 0.11229 0.48661 0.17448 0.15088h2.2007l0.21096-0.28241 0.066484-0.35509c0.15642 0.32441 0.39339 0.48661 0.71089 0.48661 0.3175 0 0.60805-0.043843 0.87165-0.13153 0.24381-0.059476 0.36572-0.17784 0.36572-0.35509 0.20873 0.21248 0.44986 0.35509 0.77091 0.35509 0.21403 0 0.44362-0.17559 0.68877-0.52676l0.60701 0.17168c0.20872 0.017508 0.31308-0.12095 0.31308-0.41538 0-0.29443 0.13204-0.29443 0.39613 0 0.21169 0.10611 0.32608 0.10611 0.34318 0 0.025652-0.15916 0.45515-0.37358 0.34859-1.5838-0.31055 0.090468-0.54114 0.26215-0.69178 0.51504 0.038079-0.34336-0.051971-0.51504-0.27015-0.51504-0.32727 0-0.64177 0.23026-0.74925 0.51504-0.29683-0.51504-0.30817-0.88329-0.79673-0.69916-0.3257 0.12275-0.53365 0.29419-0.62383 0.51432l-0.33595-0.62577c-0.89142 0.096896-1.4852 0.30549-1.7814 0.62577-0.29619-0.22013-0.589-0.33019-0.87845-0.33019l-1.5791 0.33019-2.2941-0.82925c-0.43116 0.17029-0.64384 0.38188-0.63802 0.63476-0.32949-0.42318-0.70929-0.7266-1.1394-0.91027-0.23718 0.16411-0.35578 0.46753-0.35578 0.91027-0.34753-0.63476-0.55052-1.1015-0.90336-1.1728-0.23523-0.047494-0.35284 0.13185-0.35284 0.53802-0.097146-0.40618-0.21007-0.60926-0.33877-0.60926s-0.24658 0.11125-0.35365 0.33376c-0.066052-0.29045-0.18259-0.43567-0.34962-0.43567s-0.25054 0.057718-0.25054 0.17316z" fill="#fff"/>
<path d="m28.127 51.89c0.30642-0.1211 0.60754-0.16146 0.90336-0.1211 0.29582 0.040365 0.44927 0.14259 0.46035 0.30666l0.32438-0.18557 1.3524 0.18557 0.025432 0.20003 0.19791-0.26091 1.3921 0.060885v0.20003l0.29975-0.26091c0.31841-0.033281 0.63177 0.05369 0.94006 0.26091 0.46035-0.26091 1.0014-0.52183 1.6378-0.26091 0.26905-0.22707 0.50801-0.3856 0.71686-0.47559h0.70082l0.47699-0.29329h0.73074c-0.074598 0-0.50764 0.17163-1.2991 0.5149l-2.4878 0.71838c-1.1755 0.29466-1.9063 0.44198-2.1923 0.44198-0.21892 0-1.1964-0.13614-2.7126-0.53883-0.30981-0.082284-0.79883-0.24636-1.4671-0.49223z" fill="#F1E4E4"/>
<path d="m27.443 41.542c-0.73746 1.2834-0.70652 2.098 0.092836 2.4436 1.199 0.51842 1.7647 0.5967 2.0581 0.72614 0.29338 0.12944 0.84779 0.63613 1.043 0.82234 0.19521 0.18621 0.54554 0.70125 1.1374 0.70125 0.59181 0 1.0589 0.077493 1.7046-0.4479 0.64572-0.5254 1.3049-0.82098 2.0614-0.94833 0.7565-0.12736 1.636-0.16679 1.8254-0.8535 0.18935-0.68671 0.33398-1.4114 0-2.2069-0.33398-0.79547 0.73739 1.0245 0.60701 1.5104-0.13038 0.48597-0.26709 1.4772-0.93128 1.6641-0.66419 0.18693-1.0245 0.13707-1.8067 0.5808s-1.2656 1.0979-2.0262 1.2135c-0.76054 0.11556-1.5545 0.35991-2.1668-0.18348-0.61226-0.54338-0.93787-1.2584-1.6689-1.4917-0.73099-0.23327-1.3407-0.1329-1.8371-0.55447-0.49638-0.42157-1.0696-0.56046-0.82729-1.4385 0.16151-0.58534 0.40633-1.0978 0.73446-1.5374z" fill="#C4A58E"/>
<path d="m27.596 31.096 0.83219-0.55238s-1.6941-1.1858-2.7829-1.5845c-1.0888-0.39869-3.8999-1.0466-4.7315-0.82997-0.55441 0.14443-1.3725 0.73284-2.4542 1.7652 1.0495-0.71761 1.78-1.0764 2.1916-1.0764 0.61742 0 1.7034-0.06286 2.6173 0.35509 0.91385 0.41794 2.6393 1.1699 3.1769 1.3706 0.53763 0.20075 1.1506 0.55238 1.1506 0.55238z" fill="#4D4038"/>
<path d="m37.173 32.009h-0.61052l-0.18557-0.78709c3.2646-1.5257 5.4942-2.2288 6.6888-2.1092 1.7919 0.17931 4.6043 1.2051 5.1822 1.8005 0.38531 0.39689 0.52398 0.71 0.41603 0.93934-1.1902-1.1375-2.5717-1.7538-4.1444-1.8489-2.3591-0.14261-4.6186 1.0348-4.7802 1.0348-0.10774 0-0.9632 0.32352-2.5664 0.97057z" fill="#4D4038"/>
<path d="m45.619 49.549s-1.8611 5.1112-3.495 6.7637c-1.0893 1.1017-0.93241 1.161 0.47057 0.17794 1.9475-1.863 3.087-3.4431 3.4183-4.7404 0.49705-1.9459 0.43546-3.086 0.33508-3.086-0.27565 0-0.51861 0.18096-0.59756 0.44507-0.043798 0.14653-0.087596 0.29306-0.13139 0.43959z" fill="#E1C1A9"/>
<path d="m32.971 11.717c-2.2578 0.661-4.5872 1.416-6.9879 2.2651-3.6012 1.2736-3.9123 2.6107-5.4984 5.4822-1.0574 1.9143-2.3854 5.154-3.9839 9.7191l-0.98863 10.641c0.039334 4.4531 0.36888 7.4639 0.98863 9.0323 0.92963 2.3527 2.4527 4.6199 1.6912 6.8643-0.76154 2.2443-1.6912 2.8155-1.6912 5.7992 0 2.9836 1.6697 5.0497 4.412 6.5409s2.7616 2.8386 2.0887 5.3239c-0.4486 1.6569-1.1448 2.7262-2.0887 3.208 1.0026-2.1024 0.35313-3.5099-1.9484-4.2225-3.4523-1.0689-5.452-1.1659-7.8014-3.5846-2.3494-2.4187-3.3573-4.6429-3.3573-8.1174s0.54885-7.6334 0-10.211c-0.54885-2.5778-1.5231-1.8664-3.1317-5.3441-1.6086-3.4776 1.0384-8.1542 1.0384-8.1542s4.0311-7.4989 4.7408-10.287c0.70974-2.7883 1.478-8.0909 2.5263-10.73 1.0483-2.6386 5.7548-9.0709 9.6098-10.962 3.855-1.8912 7.4051-4.5215 11.09-4.5215 2.4569 0 3.7485 0.1652 3.8747 0.49561-0.6084 2.6839-1.0461 4.0259-1.3131 4.0259-0.26699 0-1.3572 1.7546-3.2705 5.2638v1.4733z" fill="url(#a)"/>
<path d="m7.2574 48.052c-0.094785 1.984-1.0043 4.2174-2.7284 6.7002-2.5863 3.7243-3.3449 6.0038-2.9656 8.8091 0.25289 1.8702 1.3687 3.6115 3.3475 5.224v-3.7936c-1.7068-0.24739-2.2246-1.4047-1.5533-3.472 1.0069-3.101 1.9364-3.1237 2.9213-4.9455 0.98489-1.8218 2.4533-2.2195 2.4533-3.466 0-0.83105-0.26862-2.2277-0.80587-4.19l-0.66887-0.86605z" fill="#432610"/>
<path d="m7.2637 56.69s-2.076 6.0827-2.076 9.9747c0 3.892 1.1515 6.1818 2.0696 8.7764 0.91811 2.5946 2.6738 4.5408 3.0945 4.984 0.42078 0.44323 4.4717 2.8875 5.283 1.2541 0.81134-1.6334 0.91351-3.1299 0.45675-3.5827-0.45675-0.45287-2.3634-0.9895-3.1116-4.1172-0.74819-3.1277-1.0084-4.339-1.0084-4.4279s-1.1968-3.8261-1.1968-4.5073v-5.1068l-2.6438-2.6851c-0.57831-0.37473-0.86746-0.56209-0.86746-0.56209z" fill="#401F0E"/>
<path d="m69.449 70.852c4.2899 3.126 7.1695 5.0396 8.6389 5.7406 2.204 1.0515 12.898 4.7412 12.898 6.3784 0 1.6372 6.0762 15.855 6.0762 15.855s-0.61051 3.3726-1.8315 10.118h-25.781-68.503c4.2032-15.1 6.3069-22.649 6.3111-22.649 0.0042212-3e-7 1.6442-2.0473 4.9198-6.1419-0.19476 6.9262 1.5607 11.77 5.2663 14.532 3.7057 2.7614 9.8598 3.3188 18.462 1.6722 5.4753-3.6316 9.2923-6.9856 11.451-10.062 2.1586-3.0762 4.7621-7.7744 7.8104-14.095l4.3841-4.1388 9.8976 2.7913z" fill="#3B67A0"/>
<path d="m9.3135 89.345c3.1122 5.3748 6.8449 8.5642 11.198 9.568 4.3532 1.0039 10.693 0.37991 19.018-1.8719l10.663-9.8016 10.213-14.379 3.1014-7.613c-2.9048-3.4892-4.3572-4.4243-4.3572-2.8053 0 2.4286-9.7832 21.047-10.725 21.047-0.94201 0-0.94201 2.4516-4.4676 5.8561-1.1096 1.0715-3.4406 2.8084-6.9929 5.2106-3.7302 0.95454-6.6043 1.4824-8.6221 1.5835-2.0178 0.10115-4.7707-0.14464-8.2585-0.73737-3.7923-3.3183-6.294-5.6309-7.505-6.9379-1.8165-1.9606-3.2648-5.8258-3.2648-5.8258s-2.4516 2.5201-2.4516 2.5201 0.81719 1.3957 2.4516 4.187z" fill="#C6C6C6"/>
<path d="m5.2764 72.199c0 0.17058-2.1764-3.073-2.1764 2.4538 0 5.5268 1.6281 6.2044 0 9.955-1.6281 3.7506-4.469 1.4308-2.2538 4.4822 2.2151 3.0514-1.772 3.9623 1.3291 5.751 1.5758 0.90892 1.2971 1.5125 1.5492 1.4068 0.24398-0.10232 1.0465-0.89998 0.86526-0.89998-0.3684 0-2.3798-1.0496-1.9347-1.6365s-0.71772-1.8934 0.44504-2.5704c1.1628-0.67702 2.1764-1.4977 2.1764-1.0873 0 0.41032 2.8269 1.321 1.981 3.0542-0.56392 1.1555-0.90305 2.3811-1.0174 3.6771l1.9879 1.7444 2.5005-1.7444-2.5005-0.53705c0.67942-2.6102 1.0191-3.7861 1.0191-3.5277 0 0.38768 4.786 0.52698 3.7331-0.52612-0.70199-0.70206-1.5864-1.0531-2.6532-1.0531l2.1623-1.5248 0.49089-3.1204c2.7093-4.074 4.064-6.1111 4.064-6.1111l-8.5053-3.9015s-0.91401-1.654-2.742-4.9619c-0.34691 0.33816-0.52036 0.5641-0.52036 0.67783z" fill="#401F0E"/>
<path d="m34.344 10.789c0.035348-1.5672 0.25059-3.1427 0.64572-4.7264 0.59269-2.3756 0.80428-2.7682 2.1174-4.5157 1.3131-1.7476 3.1862-1.5067 5.0052-1.5067 1.819 3.69e-8 9.0479 3.8351 10.072 6.0224 1.0246 2.1874 2.0958 3.6299 3.3115 5.8589 1.2157 2.2291 6.7376 13.639 7.5377 15.613 0.80011 1.9744 2.5002 3.5001 2.5002 5.6736v4.4415c0 0.2747 3.8259 6.381 3.128 6.381-0.69782 0 3.2377 1.3319 3.2706 3.0182 0.03281 1.6863 1.4154 2.5548 0 4.9904-1.4154 2.4357-1.4903 3.2579-1.4903 3.2579s2.0768 0.71427 2.0768 3.5715c0 2.8572 0.39142 4.5487-0.58656 5.6381-0.97798 1.0894 0.22104 1.5982-0.63462 3.976-0.57044 1.5852-1.1455 2.3779-1.7251 2.3779l-0.9108-0.20165-3.6519-0.4047c-4.9968 1.5486-5.8167 1.2277-6.1139 2.0612-0.44582 1.2503 0.29299 2.3803 2.2153 3.7065 1.9223 1.3262 3.8987 2.0114 3.8987 4.5886 0 2.5772-0.70888 4.3133-0.70888 4.3133s1.3499-4.7322-1.2675-6.316c-1.7449-1.0559-3.1241-1.5792-4.1376-1.57 0.71991 0.77492 1.0799 1.5641 1.0799 2.3675 0 1.2052 0.54799 1.8328 0 2.5362-0.54799 0.70341-0.2469 0.90286-1.0799 0.90286h-1.4839c0.95227-0.56679 1.8069-0.17086 2.5638 1.1878 1.1354 2.038 1.1354 3.2575 1.1354 3.2575s-0.73132-2.0671-2.2153-1.7347c-1.4839 0.33242-1.96 0.57907-2.6801 0.90286-0.7201 0.32379-2.746-0.27169-2.746-0.90286v-2.0159c-0.47824 0.35829-1.4725 0.12674-2.9829-0.69467-2.2655-1.2321-2.7788-2.6415-2.2852-3.439 0.32906-0.53168 1.0908-1.4752 2.2852-2.8305v-1.1606s-3.1095 0.17789-3.1095-1.9678c0-2.1457 0.055835-3.1924 0.44006-3.1924 0.38423 0-0.28032-0.11923-0.94027-2.5379-0.65996-2.4187-0.65996-3.556-0.65996-5.224 0-1.6679 0.65996-6.1658 0.65996-6.1658l0.50021-2.8741c0 4e-7 2.1743-4.7003 2.6779-8.7429 0.53919-0.67912 0.43164-1.3001 0.90048-2.5081 0-3.8317 0.68143-6.0173 0.68143-8.9936 0-2.9762 0.54694-9.7784-0.68143-13.592-1.2284-3.814-2.0817-4.2035-5.7326-5.2056-2.4339-0.6681-5.6135-1.6723-9.5389-3.0125l-1.3409-0.60872z" fill="url(#a)"/>
<path d="m17.484 51.209c0.8873 1.0144 2.0303 3.0302 3.4289 6.0473 1.3986 3.0171 2.0979 7.2021 2.0979 12.555-3.0794 0.11172-5.2208-1.162-6.4242-3.8213-1.8051-3.9888 0-7.3372 0-10.638 0-2.2008 0.29913-3.5817 0.89739-4.1426z" fill="#432610"/>
<path d="m11.902 69.552c0.33271 5.3948 1.7081 8.0923 4.126 8.0923s4.3396-0.66921 5.7648-2.0076c0.72843-2.7905-0.55827-4.3853-3.8601-4.7845-3.3018-0.39919-5.3121-0.83258-6.0308-1.3002z" fill="#432610"/>
<path d="m28.744 31.024s1.1437 2.6856 1.1437 7.1492c0 4.4636-0.66985 4.6654 0.51849 6.0555 1.1883 1.3901-1.6622-0.16418-1.6622-2.6997v-6.9803l-0.80193-3.5248h0.80193z" fill="#E1C1A9"/>
<path d="m36.677 32.342c-0.87308 0.58502-1.3096 1.3732-1.3096 2.3646 0 0.99141 0.17957 1.3357 0.53871 1.0329 0.11435-0.3557 0.27142-0.90426 0.47122-1.6457 0.19979-0.74141 0.52928-1.3254 0.98846-1.7519h-0.68877z" fill="#E1C1A9"/>
<path d="m35.367 39.555c0.55595 2.1893 0.55595 3.534 0 4.0342-0.83393 0.75032 1.4811 0 1.0099-2.0171-0.31414-1.3447-0.65079-2.0171-1.0099-2.0171z" fill="#E1C1A9"/>
<path d="m34.125 10.17c-0.492-1.6319-0.2621-2.7044 0.68969-3.2174" stroke="#979797"/>
<path d="m34.125 10.841c-1.5018-1.3604-1.5018-2.7255 0-4.0952 2.2526-2.0547 5.0828-3.8155 8.9415-2.2982 3.8587 1.5173 9.5607 5.3187 10.682 7.6808 1.121 2.3621 3.7487 8.4262 2.4349 12.513-1.3139 4.0872-1.7021 4.9621-2.4349 7.0499-0.4885 1.3918-1.0715 3.0606-1.749 5.0062v-11.145c0-0.36552-1.2468-7.5458-5.3256-10.485-3.3188-0.86017-6.9079-1.84-10.767-2.9394l-1.7814-1.2874z" fill="url(#f)"/>
<path d="m32.971 11.267c0.72929-0.93404 0.72929-1.8681 0-2.8021-1.0939-1.4011 1.7775-4.5437-2.5419-3.2894-4.3194 1.2543-7.3953 4.1226-8.8795 6.0915-1.4842 1.9689-6.784 11.14-6.784 13.463s-0.54252 4.101-0.54252 6.9998c0 2.8988 0.54252 5.7372 0.54252 7.2636 0 1.0176 0.28436 2.4618 0.85307 4.3326 0.45954-6.671 0.6893-10.186 0.6893-10.544 0-0.53734 1.45-7.2853 2.8133-10.071 1.3634-2.7854 1.8259-5.9945 3.8895-7.3458 2.0636-1.3513 8.2996-3.2396 8.5829-3.2396 0.18891 0 0.648-0.28618 1.3773-0.85854z" fill="url(#e)"/>
<g transform="translate(36.892 32.552)">
<polygon points="0.66306 2.559 4.0029 0.76197 7.9868 1.4368 8.1863 2.5004 5.4705 3.0008 1.0918 2.9081" fill="#fff"/>
<g transform="translate(2.3489 .053787)">
<g transform="translate(.34313)">
<g transform="translate(.99286 .19969)">
<path d="m0.025875 1.3293c0.037036 0.70074 0.23158 1.0511 0.58363 1.0511 0.35205 0 0.76617-0.042311 1.2423-0.12693 0.1873-0.44001 0.1873-0.8574 0-1.2522-0.86306-0.19096-1.4717-0.081621-1.826 0.32801z" fill="url(#c)"/>
<circle cx="1.1023" cy="1.6613" r="1" fill="#000"/>
</g>
</g>
</g>
</g>
<g transform="translate(19.501 32.127)">
<polygon points="0.73025 2.4257 3.5006 0.77114 6.9682 1.6318 8.2535 2.3756 5.5377 2.8045 1.159 2.725" fill="#fff"/>
<g transform="translate(3 .42613)">
<path d="m0.59528 1.0708c0.018967 0.75071 0.21147 1.1261 0.57751 1.1261 0.56956 0 1.0072-0.033626 1.313-0.10088 0.11348-0.36709 0.072845-0.75586-0.1219-1.1663-0.89736-0.19855-1.4869-0.15149-1.7686 0.14116z" fill="url(#b)"/>
<circle cx="1.5503" cy="1.449" r="1" fill="#000"/>
</g>
</g>
<path d="m23.011 47.981c0.10671 0.24837 3.0002 5.1672 3.4336 5.6015 0.43343 0.43436 2.4536 1.7692 4.4901 1.7692 2.0365 0 4.1833-0.33975 5.307-1.0545 0.74915-0.47647 2.4175-2.1073 5.0052-4.8925-2.7568 1.6143-4.2802 2.4214-4.5702 2.4214-0.43496 0-3.8568 1.2936-4.7994 1.0582-0.94257-0.23542-4.6325-1.0723-5.4327-1.6753-0.80011-0.60294-2.0871-2.7443-2.3954-2.7443-0.30835 0-1.1449-0.73222-1.0382-0.48385z" fill="#F76852"/>
<path d="m29.262 53.108 2.4878 0.47425h3.0494c-0.66725 0.41062-1.2955 0.61592-1.8847 0.61592-0.58924 0-1.5423-0.091317-2.8593-0.27395l-0.7932-0.81622z" fill="#FFC6BE"/>
<path d="m51.703 33.278c1.3635 4.1039 1.6037 6.8203 0.72067 8.1493-0.88307 1.329-1.4926 1.5871-1.8285 0.77444l1.1078-8.9238z" fill="#E2C7B1"/>
<path d="m34.556 57.85c-3.4289-0.61184-5.4715-0.61184-6.128 0-0.98467 0.91775-1.3463 3.2926 0.31592 3.5548 1.6622 0.26228 4.5339-0.19739 4.7353-0.26228 0.13429-0.043255 0.76376-0.61142 1.8884-1.7045l-0.81165-1.5881z" fill="#FFF2E8"/>
<path d="m47.746 40.807c-3.2221-0.57493-5.1415-0.57493-5.7584 0-0.92527 0.8624-1.2651 3.094 0.29687 3.3404 1.5619 0.24646 4.2604-0.18549 4.4497-0.24646 0.12619-0.040646 0.71769-0.57454 1.7745-1.6017l-0.76269-1.4923z" fill="#FFF2E8" opacity=".59108"/>
<path d="m22.905 40.807c-3.2221-0.57493-5.1415-0.57493-5.7584 0-0.92527 0.8624-1.2651 3.094 0.29687 3.3404s4.2604-0.18549 4.4497-0.24646c0.12619-0.040646 0.71769-0.57454 1.7745-1.6017l-0.76269-1.4923z" fill="#FFF2E8" opacity=".59108"/>
</g>
<path d="m37.191 35.755c0.96108-0.58061 1.6729-0.99273 2.1355-1.2364 0.69394-0.36545 1.1889-0.68045 2.2651-0.68045s2.3595-0.13066 3.0457 0.27328c0.45743 0.26929 1.6213 0.01374 2.0214 0.40718 0.08217 0.011944-0.44634 0.92272-0.7034 0.99611-0.38559 0.11009-0.43941 0.37041-0.79263 0.24025-0.23548-0.086775-0.41061-0.13016-0.5254-0.13016-0.90679-0.95059-1.7573-1.3936-2.5515-1.329-1.1913 0.096848-2.5928 0.62786-2.9617 0.81544-0.24589 0.12505-0.89027 0.33964-1.9331 0.64376z" fill="#453C37"/>
<path d="m37.217 35.943-0.015658-0.19609c0.266-0.078775 0.53702-0.17294 0.81306-0.28249 0.062885-0.024958 0.9457-0.39568 1.285-0.53338 0.096455-0.03906 0.096455-0.03906 0.19338-0.077909 0.67153-0.26839 1.1497-0.43605 1.4024-0.47974 0.1301-0.022492 0.28633-0.041075 0.45675-0.05425 0.73686-0.056966 1.5247-0.0071975 1.9993 0.15914 0.45118 0.1581 1.0495 0.58776 1.8005 1.2894l-0.10196 0.16503c-0.19965-0.10944 0.065582 0.032673-0.3647 0.14987-0.56245 0.1532-2.1257 0.41999-3.7899 0.41999-0.66117 0-2.5228-0.25751-3.6782-0.55953zm3.1069 0.19519c1.6432 0 3.1945-0.08289 3.7351-0.26828 0.26115-0.089553 0.48766-0.12928 0.67984-0.11749-0.59726-0.66536-1.0799-1.0786-1.4444-1.2394-0.44748-0.19742-1.2141-0.25839-1.9294-0.18877-0.16537 0.016096-0.31636 0.038708-0.4408 0.065795-0.23607 0.051383-0.70872 0.26002-1.3676 0.59158-0.096459 0.048677-0.096459 0.048677-0.19251 0.097647-0.33768 0.17256-1.2214 0.63976-1.2862 0.67217-0.12414 0.062031-0.24733 0.12023-0.36957 0.17459 1.1652 0.14146 2.0374 0.21217 2.6155 0.21217z" fill="#453C37" fill-rule="nonzero"/>
<path transform="translate(23.878 34.171) scale(-1 1) translate(-23.878 -34.171)" d="m19.205 35.129c0.96108-0.58061 1.6729-0.99273 2.1355-1.2364 0.69394-0.36545 1.1889-0.68045 2.2651-0.68045s2.697-0.16741 3.3832 0.23653c0.45743 0.26929 1.1514 0.060064 1.5515 0.4535 0.08217 0.011944-0.31392 0.91314-0.57098 0.98653-0.38559 0.11009-0.43941 0.37041-0.79263 0.24025-0.23548-0.086775-0.41061-0.13016-0.5254-0.13016-0.94533-0.88602-1.8151-1.2968-2.6093-1.2322-1.1913 0.096848-2.535 0.53101-2.9038 0.71859-0.24589 0.12505-0.89027 0.33964-1.9331 0.64376z" fill="#453C37"/>
<path transform="translate(24.48 34.869) scale(-1 1) translate(-24.48 -34.869)" d="m20.683 35.216-0.6048-0.071558 0.58747-0.16055c0.26527-0.072499 0.53559-0.15917 0.81096-0.26002 0.062603-0.022929 0.94529-0.365 1.2848-0.49216 0.066106-0.02476 0.13056-0.048729 0.1935-0.071944 0.67332-0.24835 1.1523-0.40332 1.4074-0.44402 0.73513-0.11728 1.8705-0.09557 2.4683 0.097737 0.4553 0.14723 1.0562 0.5454 1.8095 1.195l0.24165 0.20836h-0.31907c-0.17549 0-1.2575 0.96362-3.5111 0.87156-2.7982-0.11432-3.0413-0.71534-4.3686-0.87238zm2.5684 0.19997c0.22169 0 0.41892 0.13292 1.1482 0.14726 0.33037 0.0064948 1.2565 0.036894 1.4851 0.039527 1.0722 0.01235 1.3802-0.3588 1.6925-0.43803 0.27974-0.070971 0.51028-0.12038 0.69304-0.14814-0.63047-0.52775-1.1364-0.8532-1.5126-0.976-0.55682-0.18174-1.6566-0.20297-2.358-0.090027-0.23371 0.037633-0.70556 0.19173-1.3627 0.43636-0.062558 0.023289-0.12664 0.047341-0.19239 0.072195-0.33746 0.12758-1.2213 0.47327-1.2864 0.49736-0.094017 0.034755-0.18749 0.067889-0.28042 0.0994 1.0382 0.11407 1.4188 0.3601 1.9737 0.3601z" fill="#453C37" fill-rule="nonzero"/>
</g>
</g>
</svg>
