<svg xmlns="http://www.w3.org/2000/svg" width="302" height="54"  fill-rule="evenodd" xmlns:xlink="http://www.w3.org/1999/xlink"><g fill="#fff"><path d="M25.352 53h-5.027V35c0-.352-.067-.68-.202-.984s-.316-.571-.545-.8-.495-.407-.8-.536a2.5 2.5 0 0 0-.984-.193 2.5 2.5 0 0 0-.984.193c-.305.129-.571.308-.8.536s-.407.495-.536.8a2.5 2.5 0 0 0-.193.984v18h-5.045V35a2.5 2.5 0 0 0-.193-.984c-.129-.305-.308-.571-.536-.8s-.495-.407-.8-.536a2.5 2.5 0 0 0-.984-.193 2.5 2.5 0 0 0-.984.193c-.305.129-.571.308-.8.536s-.407.495-.536.8a2.5 2.5 0 0 0-.193.984v18H.162V35c0-1.043.196-2.024.589-2.944a7.57 7.57 0 0 1 1.617-2.408 7.57 7.57 0 0 1 2.408-1.617c.92-.393 1.901-.589 2.944-.589a7.47 7.47 0 0 1 2.707.501c.867.334 1.646.817 2.338 1.45a7.37 7.37 0 0 1 2.329-1.45 7.4 7.4 0 0 1 2.698-.501c1.043 0 2.024.196 2.944.589a7.57 7.57 0 0 1 4.025 4.025c.393.92.589 1.901.589 2.944v18zm22.936-10.072v-5.045c0-.691-.132-1.345-.396-1.96a5.08 5.08 0 0 0-2.689-2.689c-.615-.264-1.269-.396-1.96-.396s-1.345.132-1.96.396a5.08 5.08 0 0 0-2.689 2.689c-.264.615-.396 1.269-.396 1.96v5.045h10.09zM53.332 53h-5.045v-5.045h-10.09V53H33.17V37.883c0-1.395.264-2.704.791-3.929a10.26 10.26 0 0 1 2.153-3.208 10.08 10.08 0 0 1 3.199-2.162c1.225-.527 2.534-.791 3.929-.791s2.704.264 3.929.791 2.294 1.248 3.208 2.162 1.635 1.983 2.162 3.208.791 2.534.791 3.929V53zm13.022 0h-5.045V27.793h5.045v12.604l9.387-12.604h5.73l-7.963 10.635L81.471 53h-5.73l-5.537-10.195-3.85 5.15V53zm38.334 0H87.409V27.793h17.279v5.045H92.454v5.045h8.279v5.045h-8.279v5.027h12.234V53zm12.178-20.162v10.09h5.045a4.86 4.86 0 0 0 1.951-.396c.609-.264 1.143-.624 1.6-1.081a5.08 5.08 0 0 0 1.081-1.608c.264-.615.396-1.269.396-1.96s-.132-1.345-.396-1.96a5.08 5.08 0 0 0-1.081-1.608c-.457-.457-.99-.817-1.6-1.081a4.86 4.86 0 0 0-1.951-.396h-5.045zm0 20.162h-5.045V27.793h10.09c.926 0 1.816.12 2.672.36s1.655.58 2.399 1.02a10.23 10.23 0 0 1 2.039 1.582 10.12 10.12 0 0 1 1.582 2.048c.439.75.779 1.553 1.02 2.408s.36 1.746.36 2.672c0 .867-.108 1.711-.325 2.531a10.36 10.36 0 0 1-.932 2.338 9.87 9.87 0 0 1-1.485 2.039c-.586.621-1.242 1.16-1.969 1.617L130.068 53h-5.361l-2.197-5.08-5.643.035V53zm46.719-12.498c0 1.195-.155 2.347-.466 3.454a13.3 13.3 0 0 1-1.31 3.111c-.563.967-1.242 1.849-2.039 2.646a13.27 13.27 0 0 1-2.637 2.048c-.961.568-1.998 1.008-3.111 1.318s-2.268.466-3.463.466-2.347-.155-3.454-.466-2.145-.75-3.111-1.318-1.849-1.251-2.646-2.048-1.479-1.679-2.048-2.646-1.008-2.004-1.318-3.111-.466-2.259-.466-3.454.155-2.35.466-3.463.75-2.15 1.318-3.111a13.27 13.27 0 0 1 2.048-2.637c.797-.797 1.679-1.477 2.646-2.039a13.3 13.3 0 0 1 3.111-1.31c1.107-.311 2.259-.466 3.454-.466s2.35.155 3.463.466 2.15.747 3.111 1.31 1.84 1.242 2.637 2.039 1.477 1.676 2.039 2.637.999 1.998 1.31 3.111.466 2.268.466 3.463zm-5.01 0c0-1.102-.211-2.142-.633-3.12s-.993-1.828-1.714-2.549-1.57-1.292-2.549-1.714-2.019-.633-3.12-.633c-1.113 0-2.156.211-3.129.633s-1.822.993-2.549 1.714-1.301 1.57-1.723 2.549-.633 2.019-.633 3.12.211 2.136.633 3.103.996 1.813 1.723 2.54 1.576 1.301 2.549 1.723 2.016.633 3.129.633c1.102 0 2.142-.211 3.12-.633s1.828-.996 2.549-1.723 1.292-1.573 1.714-2.54.633-2.001.633-3.103zm32.077 4.939c0 1.043-.199 2.021-.598 2.936s-.94 1.714-1.626 2.399-1.485 1.228-2.399 1.626-1.893.598-2.936.598h-12.604V27.793h12.604c1.043 0 2.021.199 2.936.598s1.714.94 2.399 1.626 1.228 1.485 1.626 2.399.598 1.893.598 2.936c0 .469-.064.949-.193 1.441s-.311.967-.545 1.424-.516.873-.844 1.248-.691.686-1.09.932a3.94 3.94 0 0 1 1.107.905 6.37 6.37 0 0 1 .844 1.257c.234.457.413.935.536 1.433s.185.981.185 1.45zm-15.117 2.514h7.559a2.5 2.5 0 0 0 .984-.193c.305-.129.571-.308.8-.536s.407-.495.536-.8a2.5 2.5 0 0 0 .193-.984 2.5 2.5 0 0 0-.193-.984c-.129-.305-.308-.571-.536-.8s-.495-.407-.8-.536a2.5 2.5 0 0 0-.984-.193h-7.559v5.027zm0-10.072h7.559a2.5 2.5 0 0 0 .984-.193c.305-.129.571-.308.8-.536a2.47 2.47 0 0 0 .536-.809c.129-.311.193-.642.193-.993a2.5 2.5 0 0 0-.193-.984c-.129-.305-.308-.571-.536-.8s-.495-.407-.8-.536a2.5 2.5 0 0 0-.984-.193h-7.559v5.045zm47.229 2.619c0 1.195-.155 2.347-.466 3.454a13.3 13.3 0 0 1-1.31 3.111c-.563.967-1.242 1.849-2.039 2.646a13.27 13.27 0 0 1-2.637 2.048c-.961.568-1.998 1.008-3.111 1.318s-2.268.466-3.463.466-2.347-.155-3.454-.466-2.145-.75-3.111-1.318-1.849-1.251-2.646-2.048-1.479-1.679-2.048-2.646-1.008-2.004-1.318-3.111-.466-2.259-.466-3.454.155-2.35.466-3.463.75-2.15 1.318-3.111a13.27 13.27 0 0 1 2.048-2.637c.797-.797 1.679-1.477 2.646-2.039a13.3 13.3 0 0 1 3.111-1.31c1.107-.311 2.259-.466 3.454-.466s2.35.155 3.463.466 2.15.747 3.111 1.31 1.84 1.242 2.637 2.039 1.477 1.676 2.039 2.637.999 1.998 1.31 3.111.466 2.268.466 3.463zm-5.01 0c0-1.102-.211-2.142-.633-3.12s-.993-1.828-1.714-2.549-1.57-1.292-2.549-1.714-2.019-.633-3.12-.633c-1.113 0-2.156.211-3.129.633s-1.822.993-2.549 1.714-1.301 1.57-1.723 2.549-.633 2.019-.633 3.12.211 2.136.633 3.103.996 1.813 1.723 2.54 1.576 1.301 2.549 1.723 2.016.633 3.129.633c1.102 0 2.142-.211 3.12-.633s1.828-.996 2.549-1.723 1.292-1.573 1.714-2.54.633-2.001.633-3.103zm10.438-5.15c0-1.043.199-2.021.598-2.936s.94-1.714 1.626-2.399 1.485-1.228 2.399-1.626 1.893-.598 2.936-.598h11.566v5.045h-11.566a2.5 2.5 0 0 0-.984.193c-.305.129-.571.308-.8.536s-.407.495-.536.8a2.5 2.5 0 0 0-.193.984c0 .352.064.683.193.993a2.47 2.47 0 0 0 .536.809c.229.229.495.407.8.536a2.5 2.5 0 0 0 .984.193h5.045c1.043 0 2.024.196 2.944.589a7.57 7.57 0 0 1 4.025 4.025c.393.92.589 1.901.589 2.944s-.196 2.021-.589 2.936a7.6 7.6 0 0 1-1.617 2.399c-.686.686-1.488 1.228-2.408 1.626s-1.901.598-2.944.598h-11.197v-5.045h11.197a2.5 2.5 0 0 0 .984-.193c.305-.129.571-.308.8-.536s.407-.495.536-.8a2.5 2.5 0 0 0 .193-.984 2.5 2.5 0 0 0-.193-.984c-.129-.305-.308-.571-.536-.8s-.495-.407-.8-.536a2.5 2.5 0 0 0-.984-.193h-5.045c-1.043 0-2.021-.199-2.936-.598s-1.714-.94-2.399-1.626-1.228-1.488-1.626-2.408-.598-1.901-.598-2.944z"/><path d="M295.956 0h-27.883c-1.675 0-3.033 1.838-3.033 4.166v36.388c0 .123.091.184.181.123l9.098-9.618s.045-.061.091-.061h21.456c1.675 0 3.033-1.838 3.033-4.166V3.982c0-2.205-1.313-3.982-2.942-3.982z" fill-rule="nonzero"/></g><path d="M283.5 23.539c4.142 0 7.5-2.928 7.5-6.539h-15c0 3.611 3.358 6.539 7.5 6.539z" fill="#3b17f7" fill-rule="nonzero"/></svg>